<svg width="14" height="26" viewBox="0 0 14 26" fill="none" xmlns="http://www.w3.org/2000/svg">
<path d="M0.585886 14.4339L10.8865 25.4246C11.0557 25.6069 11.257 25.7516 11.4788 25.8504C11.7005 25.9492 11.9384 26 12.1787 26C12.4189 26 12.6568 25.9492 12.8785 25.8504C13.1003 25.7516 13.3016 25.6069 13.4708 25.4246C13.8097 25.0601 14 24.5671 14 24.0532C14 23.5393 13.8097 23.0462 13.4708 22.6818L4.46228 12.9555L13.4708 3.3264C13.8097 2.96193 14 2.4689 14 1.95499C14 1.44108 13.8097 0.948047 13.4708 0.583577C13.3022 0.399773 13.1012 0.253547 12.8794 0.153372C12.6576 0.0531976 12.4194 0.00106805 12.1787 -3.891e-07C11.9379 0.00106805 11.6997 0.0531976 11.4779 0.153372C11.2561 0.253547 11.0551 0.399773 10.8865 0.583577L0.585886 11.5743C0.401157 11.7565 0.253729 11.9776 0.152894 12.2236C0.0520578 12.4697 -4.24666e-09 12.7354 -4.24666e-09 13.0041C-4.24666e-09 13.2727 0.0520578 13.5385 0.152894 13.7845C0.253729 14.0306 0.401157 14.2517 0.585886 14.4339V14.4339Z" fill="#797979"/>
</svg>
