<svg width="14" height="26" viewBox="0 0 14 26" fill="none" xmlns="http://www.w3.org/2000/svg">
<path d="M13.4141 11.5661L3.11347 0.575406C2.94429 0.393079 2.74301 0.248363 2.52124 0.149605C2.29946 0.0508462 2.06159 0 1.82134 0C1.58109 0 1.34322 0.0508462 1.12145 0.149605C0.89968 0.248363 0.698397 0.393079 0.529214 0.575406C0.190255 0.939875 0 1.43291 0 1.94682C0 2.46073 0.190255 2.95376 0.529214 3.31823L9.53772 13.0445L0.529214 22.6736C0.190255 23.0381 0 23.5311 0 24.045C0 24.5589 0.190255 25.052 0.529214 25.4164C0.697763 25.6002 0.898762 25.7465 1.12056 25.8466C1.34236 25.9468 1.58056 25.9989 1.82134 26C2.06213 25.9989 2.30032 25.9468 2.52212 25.8466C2.74392 25.7465 2.94492 25.6002 3.11347 25.4164L13.4141 14.4257C13.5988 14.2435 13.7463 14.0224 13.8471 13.7764C13.9479 13.5303 14 13.2646 14 12.9959C14 12.7273 13.9479 12.4615 13.8471 12.2155C13.7463 11.9694 13.5988 11.7483 13.4141 11.5661V11.5661Z" fill="#797979"/>
</svg>
